<svg width="24" height="24" viewBox="0 0 24 24" fill="none" xmlns="http://www.w3.org/2000/svg">
<path d="M18.9589 5.03707L15.3496 2.22008C15.16 2.0711 14.9366 2 14.7131 2C14.405 2 14.1003 2.13543 13.8971 2.39614L12.2922 4.46149L4.02409 15.0625L3.38756 15.8751L3.00158 21.0452C2.97787 21.3499 3.22504 21.5937 3.50945 21.5937C3.56023 21.5937 3.61441 21.5869 3.66858 21.57L8.6288 19.9651L9.26533 19.1491L19.1417 6.48959C19.4905 6.03927 19.4092 5.3892 18.9589 5.03707ZM4.79944 16.9788L7.21014 18.858L4.59629 19.7044L4.79944 16.9788ZM8.46289 17.7542L5.57141 15.4992L13.4671 5.37904L14.791 3.67936L17.6825 5.93431L8.46289 17.7542Z" fill="#808080"/>
<path d="M20.2827 22H10.4299C10.0169 22 9.68506 21.6682 9.68506 21.2551C9.68506 20.8421 10.0169 20.5103 10.4299 20.5103H20.2827C20.6957 20.5103 21.0275 20.8421 21.0275 21.2551C21.0275 21.6682 20.6957 22 20.2827 22Z" fill="#808080"/>
</svg>
