<svg width="14" height="14" viewBox="0 0 14 14" fill="none" xmlns="http://www.w3.org/2000/svg">
<path d="M11.0762 2.92385C8.8287 0.675937 5.17148 0.675937 2.92396 2.92385C0.676063 5.17134 0.676063 8.82859 2.92396 11.0761C5.17148 13.324 8.82871 13.324 11.0762 11.0761C13.3241 8.82859 13.3241 5.17134 11.0762 2.92385ZM10.4912 10.491C8.5662 12.4164 5.43357 12.416 3.50903 10.491C1.58364 8.56606 1.58364 5.43386 3.50903 3.50868C5.43358 1.58391 8.56621 1.5835 10.4912 3.50868C12.4161 5.43345 12.4161 8.56647 10.4912 10.491Z" fill="#656668" stroke="#656668" stroke-width="0.4"/>
<path d="M9.8635 7.12983H7.04646L7.04685 4.01335C7.04685 3.80657 6.87783 3.63794 6.67086 3.63794C6.46388 3.63794 6.29566 3.80657 6.29566 4.01335V7.22782C6.29566 7.23924 6.28181 7.50791 6.46101 7.69895C6.57492 7.8194 6.73497 7.88063 6.94156 7.88063L9.86352 7.88107C10.0705 7.88107 10.2391 7.71284 10.2391 7.50544C10.2391 7.29926 10.0709 7.13105 9.8635 7.12983Z" fill="#656668" stroke="#656668" stroke-width="0.4"/>
</svg>
