<svg width="16" height="16" viewBox="0 0 16 16" fill="none" xmlns="http://www.w3.org/2000/svg">
<path d="M12.1755 3.18687L12.5893 2.33674C12.5959 2.32157 12.6068 2.30867 12.6206 2.2996C12.6344 2.29053 12.6506 2.28571 12.6672 2.28571C12.6837 2.28571 12.6999 2.29053 12.7138 2.2996C12.7276 2.30867 12.7385 2.32157 12.7451 2.33674L13.1645 3.18687C13.1705 3.19969 13.1796 3.21081 13.191 3.21922C13.2024 3.22764 13.2157 3.23307 13.2297 3.23504L14.162 3.3654C14.1783 3.36715 14.1937 3.37356 14.2064 3.38387C14.2191 3.39418 14.2286 3.40794 14.2337 3.42351C14.2388 3.43907 14.2393 3.45577 14.2351 3.4716C14.2309 3.48743 14.2223 3.50172 14.2102 3.51275L13.5386 4.17302C13.5283 4.18266 13.5206 4.1947 13.5162 4.20806C13.5117 4.22141 13.5106 4.23566 13.5131 4.24953L13.6746 5.17617C13.6777 5.19206 13.6762 5.20852 13.6703 5.2236C13.6644 5.23867 13.6543 5.25174 13.6412 5.26127C13.6281 5.2708 13.6125 5.27639 13.5963 5.27737C13.5802 5.27836 13.5641 5.27471 13.5499 5.26685L12.7139 4.83328C12.7017 4.82683 12.6881 4.82346 12.6743 4.82346C12.6604 4.82346 12.6468 4.82683 12.6346 4.83328L11.8043 5.25835C11.7901 5.26621 11.774 5.26986 11.7579 5.26887C11.7417 5.26788 11.7261 5.2623 11.713 5.25277C11.6999 5.24324 11.6898 5.23017 11.6839 5.21509C11.678 5.20002 11.6765 5.18356 11.6796 5.16767L11.8355 4.23819C11.8379 4.22433 11.8368 4.21008 11.8324 4.19672C11.8279 4.18337 11.8202 4.17133 11.81 4.16168L11.1327 3.52125C11.1202 3.5097 11.1115 3.49468 11.1077 3.47813C11.1038 3.46157 11.105 3.44425 11.1111 3.42839C11.1172 3.41252 11.1279 3.39886 11.1419 3.38914C11.1558 3.37943 11.1724 3.37412 11.1894 3.3739L12.1188 3.23504C12.1313 3.23183 12.1429 3.22583 12.1527 3.21748C12.1625 3.20914 12.1703 3.19867 12.1755 3.18687Z" fill="white"/>
<path d="M2.6427 7.48001H4.31463C4.55266 7.48001 4.67168 7.59903 4.67168 7.83706V13.3487C4.67168 13.5868 4.55266 13.7058 4.31463 13.7058H2.6427C2.40466 13.7058 2.28564 13.5868 2.28564 13.3487V7.83706C2.28564 7.59903 2.40466 7.48001 2.6427 7.48001Z" fill="white"/>
<path d="M8.35584 3.72244C8.07246 4.17301 8.07246 4.91829 7.8486 5.44253C7.6395 5.96347 7.30242 6.42327 6.86852 6.7794C6.43462 7.13553 5.91792 7.3765 5.36621 7.48001V13.7143H11.3965C11.5871 13.712 11.7721 13.6493 11.9249 13.5353C12.0776 13.4212 12.1903 13.2616 12.2466 13.0795L13.4425 9.2256C13.5041 9.02478 13.5177 8.81231 13.4823 8.60526C13.4469 8.39821 13.3634 8.20235 13.2386 8.03342C13.1137 7.86449 12.951 7.72719 12.7635 7.63255C12.5759 7.53791 12.3688 7.48858 12.1588 7.48851H9.18614C9.18614 7.48851 10.6229 5.56439 10.144 4.12484C10.0953 3.92161 9.98654 3.73775 9.83187 3.59723C9.67719 3.45671 9.48377 3.36604 9.27682 3.33705C9.10232 3.2994 8.92047 3.31615 8.75579 3.38507C8.59111 3.45398 8.45152 3.57173 8.35584 3.72244Z" fill="white"/>
</svg>
