<svg width="10" height="10" viewBox="0 0 10 10" fill="none" xmlns="http://www.w3.org/2000/svg">
<path d="M6.3421 2.91422L8.20263 1.05263H5.78947V0H10V4.21053H8.94737V1.79685L7.08578 3.65843C7.69308 4.45449 7.97516 5.45159 7.87492 6.44782C7.77468 7.44404 7.2996 8.36495 6.54589 9.02407C5.79217 9.68319 4.81615 10.0313 3.81545 9.99779C2.81475 9.96433 1.86416 9.55184 1.15616 8.84384C0.448164 8.13584 0.035671 7.18525 0.00220728 6.18455C-0.0312564 5.18385 0.31681 4.20783 0.975928 3.45411C1.63504 2.7004 2.55595 2.22532 3.55218 2.12508C4.54841 2.02484 5.54551 2.30692 6.34157 2.91422H6.3421ZM3.94736 8.94738C4.32752 8.94741 4.70396 8.87255 5.05519 8.72709C5.40641 8.58162 5.72555 8.3684 5.99437 8.0996C6.26319 7.8308 6.47643 7.51167 6.62192 7.16046C6.76741 6.80924 6.84229 6.4328 6.84229 6.05264C6.84229 5.67248 6.76741 5.29605 6.62192 4.94483C6.47643 4.59361 6.26319 4.27449 5.99437 4.00568C5.72555 3.73688 5.40641 3.52366 5.05519 3.3782C4.70396 3.23273 4.32752 3.15788 3.94736 3.1579C3.17966 3.15795 2.44342 3.46295 1.90059 4.00582C1.35776 4.54868 1.05281 5.28494 1.05281 6.05264C1.05281 6.82034 1.35776 7.5566 1.90059 8.09947C2.44342 8.64233 3.17966 8.94733 3.94736 8.94738Z" fill="#892CCE"/>
</svg>
