<svg width="24" height="24" viewBox="0 0 24 24" fill="none" xmlns="http://www.w3.org/2000/svg">
<path d="M4.08225 16.6311C4.01171 16.7044 3.93152 16.7682 3.84378 16.8209C3.60301 16.9634 3.33993 16.984 3.09878 16.9296C3.06262 16.9218 3.04416 16.9161 3.04877 16.918C2.51069 16.7114 1.94107 17.1374 2.00491 17.698C2.49261 21.9787 9.40462 22.1531 11.1573 17.8945C11.2137 17.7575 11.2274 17.6073 11.1966 17.4627C11.1658 17.3182 11.0919 17.1857 10.9843 17.0819L7.49652 13.7233C7.35286 13.5851 7.15912 13.5076 6.95729 13.5077C5.20072 13.5077 4.57802 14.2547 4.32841 15.7739L4.31687 15.8474C4.23379 16.3544 4.17802 16.5329 4.08225 16.6311ZM9.69232 17.7636C8.40192 19.8974 5.0038 20.0088 3.92302 18.403C4.2087 18.346 4.48227 18.2418 4.73187 18.0948C4.93838 17.9735 5.12758 17.8263 5.29457 17.6568C5.69304 17.2548 5.81035 16.8876 5.94573 16.0705L5.95727 15.9985C6.0842 15.2391 6.1842 15.0396 6.77805 14.9999L9.69232 17.7636ZM10.9885 16.0259C11.1427 16.1777 11.3262 16.2982 11.5284 16.3805C11.7306 16.4628 11.9476 16.5053 12.1667 16.5054C12.3859 16.5055 12.6029 16.4633 12.8052 16.3811C13.0075 16.299 13.1911 16.1787 13.3454 16.027L13.4354 15.9407L13.7051 15.6782C13.9947 15.3951 14.3174 15.0752 14.6643 14.7246C15.6566 13.7233 16.6489 12.6771 17.5759 11.6368C18.033 11.1254 18.48 10.6056 18.9167 10.0775C21.7025 6.70099 22.8244 4.49746 21.3467 3.37469C20.0351 2.37793 17.889 3.42495 14.7747 5.86098C14.1855 6.3234 13.6071 6.79878 13.0401 7.28675C11.9751 8.20405 10.9363 9.14992 9.92502 10.1233C9.51374 10.5181 9.10692 10.9172 8.70462 11.3207L8.61038 11.4159C7.97807 12.0459 7.98499 13.0735 8.62769 13.705L10.9885 16.0262V16.0259ZM12.095 14.9642L9.73232 12.6418C9.70738 12.6162 9.69322 12.5825 9.69265 12.5472C9.69208 12.5119 9.70514 12.4777 9.72924 12.4513L9.82271 12.3564C10.2167 11.9616 10.615 11.5709 11.0177 11.1846C12.0092 10.2306 13.0275 9.30364 14.0716 8.40464C14.6216 7.93143 15.1825 7.47043 15.7539 7.022C16.9901 6.05523 18.0709 5.33185 18.9386 4.90847C19.7598 4.50834 20.2767 4.43446 20.4259 4.54809C20.509 4.61109 20.4701 5.02434 20.0648 5.81935C19.6174 6.69687 18.819 7.82413 17.7417 9.1299C17.3393 9.61741 16.9032 10.1237 16.4378 10.6457C15.5117 11.6799 14.5583 12.6907 13.5785 13.6768C13.151 14.1079 12.7187 14.5345 12.2816 14.9564C12.2239 15.013 12.1447 15.0126 12.095 14.9642Z" fill="white"/>
</svg>
