<svg width="16" height="16" viewBox="0 0 16 16" fill="none" xmlns="http://www.w3.org/2000/svg">
<path d="M3.93266 1.7776C4.24466 1.7776 4.50066 2.0192 4.52386 2.3264L4.52546 2.3704V13.6296C4.52575 13.7412 4.49448 13.8507 4.43526 13.9453C4.37603 14.0399 4.29126 14.1158 4.19073 14.1643C4.0902 14.2128 3.97801 14.2319 3.86709 14.2194C3.75617 14.2069 3.65105 14.1633 3.56386 14.0936L3.53026 14.064L1.96786 12.6176C1.90856 12.5673 1.85974 12.5058 1.82421 12.4366C1.78868 12.3674 1.76712 12.2919 1.76077 12.2144C1.75442 12.1369 1.76339 12.0588 1.78719 11.9848C1.81099 11.9107 1.84914 11.8421 1.89946 11.7828C2.00109 11.663 2.14614 11.5885 2.30269 11.5757C2.38021 11.5694 2.45822 11.5783 2.53227 11.6021C2.60632 11.6259 2.67496 11.6641 2.73426 11.7144L2.77266 11.748L3.34066 12.2728V2.3704C3.34066 2.0584 3.58146 1.8024 3.88866 1.7792L3.93266 1.7776ZM10.3911 2.4824L10.4103 2.4832C10.4718 2.48733 10.5322 2.50109 10.5895 2.524L10.5991 2.528C10.6151 2.5344 10.6295 2.5416 10.6447 2.5496L10.5895 2.524C10.7254 2.57864 10.8365 2.68146 10.9015 2.8128L10.9207 2.8552L14.7727 12.5216C14.8364 12.6651 14.8405 12.8281 14.7841 12.9747C14.7277 13.1213 14.6154 13.2394 14.4719 13.3032C14.3283 13.367 14.1653 13.3711 14.0188 13.3147C13.8722 13.2583 13.754 13.1459 13.6903 13.0024L13.6719 12.96L12.3335 9.6C12.2876 9.61509 12.24 9.6245 12.1919 9.628L12.1479 9.6296H8.39586L7.06866 12.96C7.01485 13.1061 6.90563 13.2252 6.76465 13.2914C6.62367 13.3575 6.4623 13.3655 6.3155 13.3135C6.1687 13.2615 6.0483 13.1538 5.98038 13.0136C5.91247 12.8735 5.9025 12.7122 5.95266 12.5648L5.96786 12.5216L9.81986 2.8552L9.82386 2.8456C9.82884 2.83424 9.83418 2.82303 9.83986 2.812L9.81986 2.8552C9.84992 2.78054 9.89475 2.71272 9.95166 2.6558C10.0086 2.59889 10.0764 2.55406 10.1511 2.524L10.1607 2.5208C10.1816 2.51267 10.203 2.50572 10.2247 2.5L10.1511 2.524C10.2216 2.49591 10.2968 2.48152 10.3727 2.4816L10.3911 2.4824ZM11.8719 8.444L10.3695 4.676L8.86786 8.444H11.8719Z" fill="white"/>
</svg>
