<svg width="14" height="14" viewBox="0 0 14 14" fill="none" xmlns="http://www.w3.org/2000/svg">
<path d="M7.00003 8.55091C5.66169 8.55091 4.57214 7.46137 4.57214 6.12302C4.57214 4.78468 5.66032 3.6965 7.00003 3.6965C8.33974 3.6965 9.42655 4.78604 9.42655 6.12439C9.42655 7.46274 8.33838 8.55091 7.00003 8.55091ZM7.00003 4.96923C6.36298 4.96923 5.84624 5.48734 5.84624 6.12302C5.84624 6.7587 6.36435 7.27682 7.00003 7.27682C7.63571 7.27682 8.15383 6.7587 8.15383 6.12302C8.15383 5.48734 7.63571 4.96923 7.00003 4.96923Z" fill="black"/>
<path d="M6.99996 14C6.83728 14 6.6746 13.9385 6.5502 13.8141L2.82088 10.0861C0.51739 7.78264 0.51739 4.03281 2.82088 1.72932C5.12436 -0.574163 8.87419 -0.574163 11.1777 1.72932C13.4812 4.03281 13.4812 7.78127 11.1777 10.0861L7.44972 13.8141C7.32532 13.9385 7.16264 14 6.99996 14ZM6.99996 1.27409C5.81336 1.27409 4.62539 1.72659 3.72176 2.63021C1.91452 4.43746 1.91452 7.37936 3.72176 9.1866L6.99996 12.4634L10.2782 9.18524C12.0854 7.37799 12.0854 4.43609 10.2782 2.62884C9.37317 1.72522 8.18656 1.27409 6.99996 1.27409Z" fill="black"/>
</svg>
