<svg width="7" height="10" viewBox="0 0 7 10" fill="none" xmlns="http://www.w3.org/2000/svg">
<path d="M3.0301 6.49304C2.1509 6.38199 1.34977 5.964 0.788714 5.32361C0.227658 4.68322 -0.0514517 3.86822 0.00782654 3.04341C0.0671048 2.2186 0.460347 1.44554 1.10803 0.880566C1.75572 0.315587 2.60951 0.000849787 3.49675 1.51702e-06C4.38508 -0.000796358 5.24049 0.313164 5.88957 0.878232C6.53865 1.4433 6.93282 2.21719 6.99218 3.043C7.05153 3.86882 6.77161 4.68477 6.20919 5.32542C5.64676 5.96607 4.84391 6.38349 3.9634 6.49304V7.3913H6.29665V8.26087H3.9634V10H3.0301V8.26087H0.696854V7.3913H3.0301V6.49304ZM3.49675 5.65217C3.83381 5.65219 4.16758 5.59036 4.47899 5.47019C4.7904 5.35003 5.07335 5.17389 5.3117 4.95183C5.55005 4.72978 5.73911 4.46616 5.86811 4.17602C5.9971 3.88588 6.06349 3.57491 6.06349 3.26087C6.06349 2.94683 5.9971 2.63586 5.86811 2.34572C5.73911 2.05559 5.55005 1.79196 5.3117 1.56991C5.07335 1.34785 4.7904 1.17171 4.47899 1.05155C4.16758 0.931384 3.83381 0.869546 3.49675 0.869567C2.81608 0.869608 2.16331 1.12157 1.68202 1.57002C1.20073 2.01847 0.930347 2.62668 0.930347 3.26087C0.930347 3.89506 1.20073 4.50327 1.68202 4.95172C2.16331 5.40017 2.81608 5.65213 3.49675 5.65217Z" fill="#FF6D23"/>
</svg>
