<svg width="24" height="17" viewBox="0 0 24 17" fill="none" xmlns="http://www.w3.org/2000/svg">
<rect width="24" height="16" rx="8" fill="#F28F5C"/>
<path d="M8.69291 4.28098H10.0969L7.87935 12.557H6.47535L8.69291 4.28098ZM11.7749 4.28098H14.9069C16.2989 4.28098 17.2436 4.6519 17.7648 5.39373C18.2624 6.0892 18.3402 7.09762 17.9862 8.41901C17.6352 9.7288 17.017 10.7372 16.1435 11.4443C15.2248 12.1861 14.0814 12.557 12.6894 12.557H9.55738L11.7749 4.28098ZM12.8684 5.44009L11.272 11.3979H12.736C13.804 11.3979 14.6492 11.1545 15.2685 10.6793C15.879 10.1924 16.3209 9.43903 16.5942 8.41901C16.8737 7.37581 16.8387 6.6108 16.4829 6.14715C16.1182 5.67192 15.4004 5.44009 14.3324 5.44009H12.8684Z" fill="white"/>
</svg>
