<svg width="18" height="15" viewBox="0 0 18 15" fill="none" xmlns="http://www.w3.org/2000/svg">
<path d="M12.7497 1.33331C14.7286 1.33331 16.3335 2.93746 16.3336 4.91632C16.3336 6.82387 15.1898 8.77154 13.5495 10.428C12.0477 11.9446 10.2719 13.0695 8.99966 13.5706C7.72736 13.0694 5.95148 11.9445 4.44986 10.428C2.80962 8.77156 1.66666 6.82384 1.66666 4.91632C1.66683 2.93757 3.2709 1.33349 5.24966 1.33331C6.46076 1.33331 7.5321 1.93345 8.18228 2.85675C8.36953 3.12257 8.67452 3.28047 8.99966 3.28058C9.32498 3.28058 9.63072 3.12274 9.81802 2.85675C10.4682 1.93355 11.5387 1.33342 12.7497 1.33331Z" stroke="#333333" stroke-width="2" stroke-linecap="round" stroke-linejoin="round"/>
</svg>
